<?xml version="1.0" encoding="UTF-8"?>
<svg xmlns="http://www.w3.org/2000/svg" xmlns:xlink="http://www.w3.org/1999/xlink" viewBox="0 0 100 100" width="100px" height="100px">
<g id="surface6171929">
<path style=" stroke:none;fill-rule:nonzero;fill:rgb(92.54902%,94.117647%,94.509804%);fill-opacity:1;" d="M 50 2.101562 C 49.566406 2.101562 49.132812 2.238281 48.761719 2.519531 L 2.761719 38.421875 C 1.902344 39.101562 1.742188 40.359375 2.421875 41.238281 C 3.101562 42.097656 4.359375 42.257812 5.238281 41.578125 L 8 39.421875 L 8 92 C 8 93.101562 8.898438 94 10 94 L 38 94 L 38 58 L 62 58 L 62 94 L 90 94 C 91.101562 94 92 93.101562 92 92 L 92 39.421875 L 94.761719 41.578125 C 95.140625 41.859375 95.558594 42 96 42 C 96.601562 42 97.179688 41.738281 97.578125 41.238281 C 98.257812 40.359375 98.097656 39.101562 97.238281 38.421875 L 51.238281 2.519531 C 50.867188 2.238281 50.433594 2.101562 50 2.101562 Z M 70 10 L 70 12.101562 L 82 21.460938 L 82 10 Z M 70 10 "/>
</g>
</svg>
